<svg width="25" height="25" viewBox="0 0 25 25" fill="none" xmlns="http://www.w3.org/2000/svg">
<mask id="mask0_421_3053" style="mask-type:alpha" maskUnits="userSpaceOnUse" x="0" y="0" width="25" height="25">
<rect x="0.30127" y="0.105774" width="24" height="24" fill="#D9D9D9"/>
</mask>
<g mask="url(#mask0_421_3053)">
<path d="M7.30127 21.1058C6.75127 21.1058 6.28044 20.9099 5.88877 20.5183C5.4971 20.1266 5.30127 19.6558 5.30127 19.1058V6.10577H4.30127V4.10577H9.30127V3.10577H15.3013V4.10577H20.3013V6.10577H19.3013V19.1058C19.3013 19.6558 19.1054 20.1266 18.7138 20.5183C18.3221 20.9099 17.8513 21.1058 17.3013 21.1058H7.30127ZM17.3013 6.10577H7.30127V19.1058H17.3013V6.10577ZM9.30127 17.1058H11.3013V8.10577H9.30127V17.1058ZM13.3013 17.1058H15.3013V8.10577H13.3013V17.1058Z" fill="#1C1B1F"/>
</g>
</svg>
