<svg width="25" height="25" viewBox="0 0 25 25" fill="none" xmlns="http://www.w3.org/2000/svg">
<mask id="mask0_395_3059" style="mask-type:alpha" maskUnits="userSpaceOnUse" x="0" y="0" width="25" height="25">
<rect x="0.84021" y="0.869629" width="24" height="24" fill="#D9D9D9"/>
</mask>
<g mask="url(#mask0_395_3059)">
<path d="M12.8402 16.8696L7.84021 11.8696L9.24021 10.4196L11.8402 13.0196V4.86963H13.8402V13.0196L16.4402 10.4196L17.8402 11.8696L12.8402 16.8696ZM6.84021 20.8696C6.29021 20.8696 5.81938 20.6738 5.42771 20.2821C5.03604 19.8905 4.84021 19.4196 4.84021 18.8696V15.8696H6.84021V18.8696H18.8402V15.8696H20.8402V18.8696C20.8402 19.4196 20.6444 19.8905 20.2527 20.2821C19.861 20.6738 19.3902 20.8696 18.8402 20.8696H6.84021Z" fill="#1C1B1F"/>
</g>
</svg>
