<svg width="64" height="27" viewBox="0 0 64 27" fill="none" xmlns="http://www.w3.org/2000/svg">
<rect width="64" height="27" rx="5" fill="white"/>
<g clip-path="url(#clip0_379_3319)">
<path d="M6 6H26V21H6V6Z" fill="white"/>
<path d="M6 6H12.6656V21H6V6Z" fill="#002654"/>
<path d="M19.3344 6H26V21H19.3344V6Z" fill="#CE1126"/>
</g>
<mask id="mask0_379_3319" style="mask-type:alpha" maskUnits="userSpaceOnUse" x="30" y="6" width="16" height="16">
<rect x="30" y="6" width="16" height="16" fill="#D9D9D9"/>
</mask>
<g mask="url(#mask0_379_3319)">
<path d="M37.3334 14.6667H33.3334V13.3333H37.3334V9.33334H38.6667V13.3333H42.6667V14.6667H38.6667V18.6667H37.3334V14.6667Z" fill="#1C1B1F"/>
</g>
<path d="M48.541 13.2012H49.3145C49.6934 13.2012 50.0059 13.1387 50.252 13.0137C50.502 12.8848 50.6875 12.7109 50.8086 12.4922C50.9336 12.2695 50.9961 12.0195 50.9961 11.7422C50.9961 11.4141 50.9414 11.1387 50.832 10.916C50.7227 10.6934 50.5586 10.5254 50.3398 10.4121C50.1211 10.2988 49.8438 10.2422 49.5078 10.2422C49.2031 10.2422 48.9336 10.3027 48.6992 10.4238C48.4688 10.541 48.2871 10.709 48.1543 10.9277C48.0254 11.1465 47.9609 11.4043 47.9609 11.7012H46.877C46.877 11.2676 46.9863 10.873 47.2051 10.5176C47.4238 10.1621 47.7305 9.87891 48.125 9.66797C48.5234 9.45703 48.9844 9.35156 49.5078 9.35156C50.0234 9.35156 50.4746 9.44336 50.8613 9.62695C51.248 9.80664 51.5488 10.0762 51.7637 10.4355C51.9785 10.791 52.0859 11.2344 52.0859 11.7656C52.0859 11.9805 52.0352 12.2109 51.9336 12.457C51.8359 12.6992 51.6816 12.9258 51.4707 13.1367C51.2637 13.3477 50.9941 13.5215 50.6621 13.6582C50.3301 13.791 49.9316 13.8574 49.4668 13.8574H48.541V13.2012ZM48.541 14.0918V13.4414H49.4668C50.0098 13.4414 50.459 13.5059 50.8145 13.6348C51.1699 13.7637 51.4492 13.9355 51.6523 14.1504C51.8594 14.3652 52.0039 14.6016 52.0859 14.8594C52.1719 15.1133 52.2148 15.3672 52.2148 15.6211C52.2148 16.0195 52.1465 16.373 52.0098 16.6816C51.877 16.9902 51.6875 17.252 51.4414 17.4668C51.1992 17.6816 50.9141 17.8438 50.5859 17.9531C50.2578 18.0625 49.9004 18.1172 49.5137 18.1172C49.1426 18.1172 48.793 18.0645 48.4648 17.959C48.1406 17.8535 47.8535 17.7012 47.6035 17.502C47.3535 17.2988 47.1582 17.0508 47.0176 16.7578C46.877 16.4609 46.8066 16.123 46.8066 15.7441H47.8906C47.8906 16.041 47.9551 16.3008 48.084 16.5234C48.2168 16.7461 48.4043 16.9199 48.6465 17.0449C48.8926 17.166 49.1816 17.2266 49.5137 17.2266C49.8457 17.2266 50.1309 17.1699 50.3691 17.0566C50.6113 16.9395 50.7969 16.7637 50.9258 16.5293C51.0586 16.2949 51.125 16 51.125 15.6445C51.125 15.2891 51.0508 14.998 50.9023 14.7715C50.7539 14.541 50.543 14.3711 50.2695 14.2617C50 14.1484 49.6816 14.0918 49.3145 14.0918H48.541ZM55.291 13.2012H56.0645C56.4434 13.2012 56.7559 13.1387 57.002 13.0137C57.252 12.8848 57.4375 12.7109 57.5586 12.4922C57.6836 12.2695 57.7461 12.0195 57.7461 11.7422C57.7461 11.4141 57.6914 11.1387 57.582 10.916C57.4727 10.6934 57.3086 10.5254 57.0898 10.4121C56.8711 10.2988 56.5938 10.2422 56.2578 10.2422C55.9531 10.2422 55.6836 10.3027 55.4492 10.4238C55.2188 10.541 55.0371 10.709 54.9043 10.9277C54.7754 11.1465 54.7109 11.4043 54.7109 11.7012H53.627C53.627 11.2676 53.7363 10.873 53.9551 10.5176C54.1738 10.1621 54.4805 9.87891 54.875 9.66797C55.2734 9.45703 55.7344 9.35156 56.2578 9.35156C56.7734 9.35156 57.2246 9.44336 57.6113 9.62695C57.998 9.80664 58.2988 10.0762 58.5137 10.4355C58.7285 10.791 58.8359 11.2344 58.8359 11.7656C58.8359 11.9805 58.7852 12.2109 58.6836 12.457C58.5859 12.6992 58.4316 12.9258 58.2207 13.1367C58.0137 13.3477 57.7441 13.5215 57.4121 13.6582C57.0801 13.791 56.6816 13.8574 56.2168 13.8574H55.291V13.2012ZM55.291 14.0918V13.4414H56.2168C56.7598 13.4414 57.209 13.5059 57.5645 13.6348C57.9199 13.7637 58.1992 13.9355 58.4023 14.1504C58.6094 14.3652 58.7539 14.6016 58.8359 14.8594C58.9219 15.1133 58.9648 15.3672 58.9648 15.6211C58.9648 16.0195 58.8965 16.373 58.7598 16.6816C58.627 16.9902 58.4375 17.252 58.1914 17.4668C57.9492 17.6816 57.6641 17.8438 57.3359 17.9531C57.0078 18.0625 56.6504 18.1172 56.2637 18.1172C55.8926 18.1172 55.543 18.0645 55.2148 17.959C54.8906 17.8535 54.6035 17.7012 54.3535 17.502C54.1035 17.2988 53.9082 17.0508 53.7676 16.7578C53.627 16.4609 53.5566 16.123 53.5566 15.7441H54.6406C54.6406 16.041 54.7051 16.3008 54.834 16.5234C54.9668 16.7461 55.1543 16.9199 55.3965 17.0449C55.6426 17.166 55.9316 17.2266 56.2637 17.2266C56.5957 17.2266 56.8809 17.1699 57.1191 17.0566C57.3613 16.9395 57.5469 16.7637 57.6758 16.5293C57.8086 16.2949 57.875 16 57.875 15.6445C57.875 15.2891 57.8008 14.998 57.6523 14.7715C57.5039 14.541 57.293 14.3711 57.0195 14.2617C56.75 14.1484 56.4316 14.0918 56.0645 14.0918H55.291Z" fill="black"/>
<defs>
<clipPath id="clip0_379_3319">
<rect x="6" y="6" width="20" height="15" rx="5" fill="white"/>
</clipPath>
</defs>
</svg>
