<svg width="25" height="25" viewBox="0 0 25 25" fill="none" xmlns="http://www.w3.org/2000/svg">
<mask id="mask0_419_3047" style="mask-type:alpha" maskUnits="userSpaceOnUse" x="0" y="0" width="25" height="25">
<rect x="0.30127" y="0.105774" width="24" height="24" fill="#D9D9D9"/>
</mask>
<g mask="url(#mask0_419_3047)">
<path d="M6.30127 22.1058C5.46794 22.1058 4.7596 21.8141 4.17627 21.2308C3.59294 20.6474 3.30127 19.9391 3.30127 19.1058V16.1058H6.30127V2.10577H21.3013V19.1058C21.3013 19.9391 21.0096 20.6474 20.4263 21.2308C19.8429 21.8141 19.1346 22.1058 18.3013 22.1058H6.30127ZM18.3013 20.1058C18.5846 20.1058 18.8221 20.0099 19.0138 19.8183C19.2054 19.6266 19.3013 19.3891 19.3013 19.1058V4.10577H8.30127V16.1058H17.3013V19.1058C17.3013 19.3891 17.3971 19.6266 17.5888 19.8183C17.7804 20.0099 18.0179 20.1058 18.3013 20.1058ZM9.30127 9.10577V7.10577H18.3013V9.10577H9.30127ZM9.30127 12.1058V10.1058H18.3013V12.1058H9.30127ZM6.30127 20.1058H15.3013V18.1058H5.30127V19.1058C5.30127 19.3891 5.3971 19.6266 5.58877 19.8183C5.78044 20.0099 6.01794 20.1058 6.30127 20.1058ZM6.30127 20.1058H5.30127H15.3013H6.30127Z" fill="black"/>
</g>
</svg>
