<svg width="81" height="61" viewBox="0 0 81 61" fill="none" xmlns="http://www.w3.org/2000/svg">
<g clip-path="url(#clip0_398_3042)">
<path d="M32.9458 0.314363H80.9458V60.3144H32.9458V0.314363Z" fill="#FF0000"/>
<path d="M0.945797 0.314363H32.9458V60.3144H0.945797V0.314363Z" fill="#006600"/>
<path fill-rule="evenodd" clip-rule="evenodd" d="M43.3833 38.5894C39.3458 38.4644 20.8833 26.9394 20.7583 25.0894L21.7708 23.4019C23.6083 26.0644 42.4833 37.2769 44.3458 36.8769L43.3833 38.5894Z" fill="#FFFF00" stroke="black" stroke-width="0.075" stroke-linecap="round" stroke-linejoin="round"/>
<path fill-rule="evenodd" clip-rule="evenodd" d="M21.5583 23.1644C21.1958 24.1394 26.3833 27.3394 32.6083 31.1394C38.8458 34.9269 44.2208 37.2644 44.6083 36.9394L44.7958 36.5894C44.7208 36.7144 44.5458 36.7519 44.2583 36.6644C42.5708 36.1769 38.1833 34.1644 32.7458 30.8644C27.2958 27.5644 22.5708 24.5269 21.8333 23.2394C21.7758 23.1187 21.75 22.9853 21.7583 22.8519H21.7333L21.5833 23.1269L21.5583 23.1644ZM43.4708 38.6394C43.4083 38.7644 43.2708 38.7644 43.0333 38.7394C41.5333 38.5769 36.9583 36.3519 31.5458 33.1144C25.2458 29.3394 20.0458 25.9144 20.6208 25.0144L20.7708 24.7394L20.7958 24.7519C20.2958 26.2769 31.0583 32.4269 31.6958 32.8269C37.9208 36.6769 43.1708 38.9394 43.6333 38.3519L43.4708 38.6394Z" fill="#FFFF00" stroke="black" stroke-width="0.075" stroke-linecap="round" stroke-linejoin="round"/>
<path fill-rule="evenodd" clip-rule="evenodd" d="M32.9708 26.2144C36.9958 26.1769 41.9708 25.6644 44.8458 24.5144L44.2208 23.5144C42.5333 24.4519 37.5333 25.0769 32.9333 25.1644C27.5083 25.1144 23.6708 24.6019 21.7458 23.3144L21.1708 24.3894C24.6958 25.8894 28.3208 26.2019 32.9708 26.2144Z" fill="#FFFF00" stroke="black" stroke-width="0.075" stroke-linecap="round" stroke-linejoin="round"/>
<path fill-rule="evenodd" clip-rule="evenodd" d="M45.0083 24.5394C44.9083 24.7019 43.0333 25.3394 40.2833 25.8144C37.8591 26.1817 35.4102 26.3614 32.9583 26.3519C30.6092 26.3607 28.2621 26.2103 25.9333 25.9019C23.0458 25.4519 21.5583 24.8269 20.9958 24.6019L21.1333 24.3269C22.7208 24.9519 24.2208 25.3269 25.9708 25.6019C28.2826 25.914 30.613 26.0685 32.9458 26.0644C35.385 26.0669 37.8209 25.8873 40.2333 25.5269C43.0458 25.0644 44.5833 24.4769 44.8083 24.2144L45.0083 24.5519V24.5394ZM44.4583 23.5269C44.1583 23.7769 42.6333 24.3144 39.9583 24.7394C37.6483 25.0736 35.3173 25.2407 32.9833 25.2394C30.2333 25.2394 27.9708 25.0394 26.2583 24.7894C23.5333 24.4394 22.0833 23.7894 21.5583 23.6144L21.7208 23.3394C22.1333 23.5519 23.5208 24.1144 26.2833 24.5019C28.504 24.7993 30.7428 24.9413 32.9833 24.9269C35.3007 24.9276 37.6151 24.7605 39.9083 24.4269C42.5958 24.0519 44.0458 23.3769 44.2708 23.2019L44.4583 23.5269ZM19.7333 31.0644C22.2083 32.4019 27.7208 33.0644 32.9333 33.1144C37.6833 33.1269 43.8583 32.3894 46.1708 31.1644L46.1083 29.8269C45.3833 30.9519 38.7583 32.0394 32.8833 32.0019C27.0083 31.9519 21.5458 31.0519 19.7208 29.8769V31.0644" fill="#FFFF00"/>
<path d="M19.7333 31.0644C22.2083 32.4019 27.7208 33.0644 32.9333 33.1144C37.6833 33.1269 43.8583 32.3894 46.1708 31.1644L46.1083 29.8269C45.3833 30.9519 38.7583 32.0394 32.8833 32.0019C27.0083 31.9519 21.5458 31.0519 19.7208 29.8769V31.0644M45.0083 24.5394C44.9083 24.7019 43.0333 25.3394 40.2833 25.8144C37.8591 26.1817 35.4102 26.3614 32.9583 26.3519C30.6092 26.3607 28.2621 26.2103 25.9333 25.9019C23.0458 25.4519 21.5583 24.8269 20.9958 24.6019L21.1333 24.3269C22.7208 24.9519 24.2208 25.3269 25.9708 25.6019C28.2826 25.914 30.613 26.0685 32.9458 26.0644C35.385 26.0669 37.8209 25.8873 40.2333 25.5269C43.0458 25.0644 44.5833 24.4769 44.8083 24.2144L45.0083 24.5519V24.5394ZM44.4583 23.5269C44.1583 23.7769 42.6333 24.3144 39.9583 24.7394C37.6483 25.0736 35.3173 25.2407 32.9833 25.2394C30.2333 25.2394 27.9708 25.0394 26.2583 24.7894C23.5333 24.4394 22.0833 23.7894 21.5583 23.6144L21.7208 23.3394C22.1333 23.5519 23.5208 24.1144 26.2833 24.5019C28.504 24.7993 30.7428 24.9413 32.9833 24.9269C35.3007 24.9276 37.6151 24.7605 39.9083 24.4269C42.5958 24.0519 44.0458 23.3769 44.2708 23.2019L44.4583 23.5269Z" stroke="black" stroke-width="0.075" stroke-linecap="round" stroke-linejoin="round"/>
<path fill-rule="evenodd" clip-rule="evenodd" d="M46.2958 30.8769V31.1894C45.9458 31.6144 43.7708 32.2394 41.0458 32.6894C38.3386 33.0785 35.6058 33.2624 32.8708 33.2394C30.2774 33.2615 27.6863 33.0818 25.1208 32.7019C23.2065 32.4807 21.3359 31.9751 19.5708 31.2019V30.8394C20.7833 31.6394 24.0583 32.2394 25.1583 32.4144C27.1333 32.7144 29.6708 32.9394 32.8708 32.9394C36.2333 32.9394 38.9208 32.7019 40.9958 32.3894C42.9583 32.1019 45.7458 31.3644 46.2958 30.8769ZM46.2958 29.7519V30.0644C45.9458 30.4769 43.7708 31.1019 41.0458 31.5519C38.3389 31.9452 35.6061 32.1332 32.8708 32.1144C30.2776 32.1296 27.687 31.95 25.1208 31.5769C23.2065 31.3557 21.3359 30.8501 19.5708 30.0769V29.7019C20.7833 30.5144 24.0708 31.1019 25.1583 31.2769C27.7118 31.6509 30.2901 31.8306 32.8708 31.8144C36.2333 31.8144 38.9333 31.5644 40.9958 31.2519C42.9583 30.9769 45.7458 30.2394 46.2958 29.7519ZM32.9208 38.3519C27.2208 38.3269 22.3333 36.8019 21.2958 36.5519L22.0458 37.7269C25.5519 38.9686 29.2517 39.574 32.9708 39.5144C37.3083 39.3894 41.0958 39.0519 43.7583 37.7519L44.5333 36.5269C42.7208 37.3894 36.5333 38.3519 32.9083 38.3519" fill="#FFFF00"/>
<path d="M32.9208 38.3519C27.2208 38.3269 22.3333 36.8019 21.2958 36.5519L22.0458 37.7269C25.5519 38.9686 29.2517 39.574 32.9708 39.5144C37.3083 39.3894 41.0958 39.0519 43.7583 37.7519L44.5333 36.5269C42.7208 37.3894 36.5333 38.3519 32.9083 38.3519M46.2958 30.8769V31.1894C45.9458 31.6144 43.7708 32.2394 41.0458 32.6894C38.3386 33.0785 35.6058 33.2624 32.8708 33.2394C30.2774 33.2615 27.6863 33.0818 25.1208 32.7019C23.2065 32.4807 21.3359 31.9751 19.5708 31.2019V30.8394C20.7833 31.6394 24.0583 32.2394 25.1583 32.4144C27.1333 32.7144 29.6708 32.9394 32.8708 32.9394C36.2333 32.9394 38.9208 32.7019 40.9958 32.3894C42.9583 32.1019 45.7458 31.3644 46.2958 30.8769ZM46.2958 29.7519V30.0644C45.9458 30.4769 43.7708 31.1019 41.0458 31.5519C38.3389 31.9452 35.6061 32.1332 32.8708 32.1144C30.2776 32.1296 27.687 31.95 25.1208 31.5769C23.2065 31.3557 21.3359 30.8501 19.5708 30.0769V29.7019C20.7833 30.5144 24.0708 31.1019 25.1583 31.2769C27.7118 31.6509 30.2901 31.8306 32.8708 31.8144C36.2333 31.8144 38.9333 31.5644 40.9958 31.2519C42.9583 30.9769 45.7458 30.2394 46.2958 29.7519Z" stroke="black" stroke-width="0.075" stroke-linecap="round" stroke-linejoin="round"/>
<path fill-rule="evenodd" clip-rule="evenodd" d="M44.0583 37.4769C43.9445 37.6455 43.8278 37.8122 43.7083 37.9769C42.4583 38.4269 40.4583 38.9019 39.6333 39.0269C37.4195 39.4394 35.1727 39.6486 32.9208 39.6519C27.8708 39.5769 23.7333 38.5894 21.7958 37.7394L21.6333 37.4769L21.6583 37.4269L21.9208 37.5394C25.4783 38.7166 29.1986 39.3282 32.9458 39.3519C35.2958 39.3519 37.6333 39.0894 39.5208 38.7519C42.4208 38.1644 43.5958 37.7269 43.9583 37.5269L44.0458 37.4769H44.0583ZM44.7208 36.3769C44.6385 36.5233 44.5552 36.6691 44.4708 36.8144C43.7958 37.0644 41.9708 37.5894 39.3083 37.9644C37.5583 38.2019 36.4708 38.4394 32.9833 38.5019C28.9966 38.4618 25.0344 37.873 21.2083 36.7519L21.0708 36.4394C24.9581 37.5137 28.9637 38.1015 32.9958 38.1894C36.1833 38.1269 37.5458 37.8894 39.2833 37.6519C42.3833 37.1769 43.9458 36.6519 44.4083 36.5144C44.4086 36.506 44.4086 36.4977 44.4083 36.4894L44.7333 36.3644L44.7208 36.3769Z" fill="#FFFF00" stroke="black" stroke-width="0.075" stroke-linecap="round" stroke-linejoin="round"/>
<path fill-rule="evenodd" clip-rule="evenodd" d="M44.7958 30.0144C44.8083 33.7644 42.8833 37.1394 41.3458 38.6144C39.075 40.8291 36.0424 42.0904 32.8708 42.1394C29.0833 42.2019 25.5208 39.7394 24.5583 38.6519C22.4051 36.3684 21.1796 33.3648 21.1208 30.2269C21.3458 26.1269 22.9583 23.2769 25.2833 21.3144C27.5419 19.4551 30.383 18.4505 33.3083 18.4769C35.0159 18.5597 36.6875 18.9983 38.2158 19.7646C39.7441 20.5309 41.0954 21.608 42.1833 22.9269C43.7458 24.8269 44.4333 26.8894 44.7958 30.0144ZM32.8958 17.1894C36.3927 17.1893 39.7478 18.5715 42.2298 21.0348C44.7118 23.498 46.1194 26.8426 46.1458 30.3394C46.1458 32.0745 45.804 33.7926 45.1401 35.3956C44.4761 36.9986 43.5028 38.4551 42.2759 39.682C41.0491 40.9089 39.5925 41.8821 37.9895 42.5461C36.3865 43.2101 34.6684 43.5519 32.9333 43.5519C31.1982 43.5519 29.4801 43.2101 27.8771 42.5461C26.2741 41.8821 24.8175 40.9089 23.5907 39.682C22.3638 38.4551 21.3905 36.9986 20.7265 35.3956C20.0626 33.7926 19.7208 32.0745 19.7208 30.3394C19.7083 23.0894 25.6333 17.1894 32.8958 17.1894Z" fill="#FFFF00" stroke="black" stroke-width="0.075" stroke-linecap="round" stroke-linejoin="round"/>
<path fill-rule="evenodd" clip-rule="evenodd" d="M32.9333 17.1269C40.2083 17.1269 46.1333 23.0519 46.1333 30.3269C46.1333 37.6019 40.2083 43.5269 32.9458 43.5269C25.6833 43.5269 19.7458 37.6019 19.7458 30.3269C19.7458 23.0519 25.6708 17.1269 32.9458 17.1269H32.9333ZM20.0208 30.3144C20.0208 37.4144 25.8583 43.2269 32.9333 43.2269C40.0083 43.2269 45.8458 37.4144 45.8458 30.3144C45.8458 23.2144 40.0083 17.4019 32.9333 17.4019C25.8583 17.4019 20.0208 23.2144 20.0208 30.3144Z" fill="#FFFF00" stroke="black" stroke-width="0.075" stroke-linecap="round" stroke-linejoin="round"/>
<path fill-rule="evenodd" clip-rule="evenodd" d="M32.9458 18.2269C36.1486 18.2368 39.2173 19.5134 41.482 21.7781C43.7467 24.0428 45.0234 27.1116 45.0333 30.3144C45.0234 33.5183 43.7472 36.5883 41.4828 38.855C39.2184 41.1217 36.1497 42.4012 32.9458 42.4144C26.3208 42.4144 20.8583 36.9644 20.8583 30.3144C20.8715 27.1126 22.1492 24.0458 24.4132 21.7818C26.6772 19.5178 29.744 18.24 32.9458 18.2269ZM21.1458 30.3144C21.1458 36.8144 26.4708 42.1144 32.9458 42.1144C39.4208 42.1144 44.7458 36.8019 44.7458 30.3144C44.7458 23.8144 39.4208 18.5144 32.9458 18.5144C29.8203 18.5275 26.8266 19.775 24.6165 21.985C22.4064 24.1951 21.159 27.1889 21.1458 30.3144Z" fill="#FFFF00" stroke="black" stroke-width="0.075" stroke-linecap="round" stroke-linejoin="round"/>
<path fill-rule="evenodd" clip-rule="evenodd" d="M33.4833 17.0644H32.3458V43.6019H33.4708L33.4833 17.0644Z" fill="#FFFF00" stroke="black" stroke-width="0.075" stroke-linecap="round" stroke-linejoin="round"/>
<path fill-rule="evenodd" clip-rule="evenodd" d="M33.3583 16.9144H33.6458V43.7519H33.3708V16.9144H33.3583ZM32.2333 16.9144H32.5333V43.7519H32.2458V16.9144H32.2333Z" fill="#FFFF00" stroke="black" stroke-width="0.075" stroke-linecap="round" stroke-linejoin="round"/>
<path fill-rule="evenodd" clip-rule="evenodd" d="M46.1458 30.8394V29.8644L45.3458 29.1144L40.8083 27.9144L34.2833 27.2519L26.4083 27.6519L20.8083 28.9769L19.6833 29.8144V30.8019L22.5458 29.5144L29.3458 28.4519H35.8833L40.6833 28.9769L44.0083 29.7769L46.1458 30.8394Z" fill="#FFFF00" stroke="black" stroke-width="0.075" stroke-linecap="round" stroke-linejoin="round"/>
<path fill-rule="evenodd" clip-rule="evenodd" d="M32.9458 28.2894C36.0583 28.2894 39.0708 28.5769 41.4833 29.0394C43.9583 29.5394 45.6958 30.1644 46.2958 30.8519V31.2019C45.5708 30.3269 43.2333 29.7019 41.4208 29.3269C39.0458 28.8769 36.0458 28.5769 32.9333 28.5769C29.6708 28.5769 26.6208 28.9019 24.2708 29.3519C22.3958 29.7269 19.8833 30.4769 19.5708 31.2019V30.8394C19.7333 30.3394 21.6083 29.5894 24.2333 29.0519C26.5958 28.5894 29.6458 28.2894 32.9333 28.2894H32.9458ZM32.9458 27.1519C35.8083 27.1461 38.6656 27.3971 41.4833 27.9019C43.9583 28.4019 45.6958 29.0269 46.2958 29.7269V30.0644C45.5708 29.2019 43.2333 28.5644 41.4208 28.2019C39.0458 27.7394 36.0458 27.4519 32.9333 27.4519C30.0322 27.4427 27.1365 27.7021 24.2833 28.2269C22.4708 28.5644 19.8583 29.3394 19.5708 30.0644V29.7144C19.7458 29.2144 21.6458 28.4269 24.2333 27.9269C26.6083 27.4644 29.6458 27.1519 32.9458 27.1519ZM32.8708 21.3769C37.7833 21.3519 42.0708 22.0644 44.0333 23.0644L44.7458 24.3144C43.0458 23.3894 38.4208 22.4394 32.8833 22.5644C28.3708 22.6019 23.5458 23.0644 21.1333 24.3644L21.9833 22.9394C23.9708 21.9019 28.6458 21.3769 32.8708 21.3769Z" fill="#FFFF00" stroke="black" stroke-width="0.075" stroke-linecap="round" stroke-linejoin="round"/>
<path fill-rule="evenodd" clip-rule="evenodd" d="M32.9458 22.4019C35.5107 22.3586 38.0745 22.5384 40.6083 22.9394C42.6083 23.3144 44.5208 23.8644 44.7958 24.1644L45.0083 24.5394C44.3458 24.1144 42.6833 23.6269 40.5583 23.2269C38.4333 22.8269 35.7208 22.6894 32.9333 22.7019C29.7708 22.6894 27.3083 22.8519 25.2083 23.2269C23.7607 23.4298 22.3552 23.8645 21.0458 24.5144L21.2583 24.1269C22.0083 23.7519 23.1708 23.2894 25.1458 22.9269C27.3333 22.5269 29.8208 22.4144 32.9458 22.4019ZM32.9458 21.2769C35.6208 21.2519 38.2708 21.4019 40.3333 21.7769C41.6696 21.9753 42.9627 22.3979 44.1583 23.0269L44.4708 23.5269C43.9458 22.9394 41.9708 22.3769 40.2083 22.0769C38.1583 21.7144 35.6208 21.5769 32.9458 21.5519C30.4557 21.5297 27.968 21.7136 25.5083 22.1019C24.2221 22.2811 22.973 22.6651 21.8083 23.2394L22.0833 22.8269C22.8083 22.4519 23.9833 22.1019 25.4583 21.8144C27.9343 21.421 30.4389 21.2371 32.9458 21.2644V21.2769ZM39.4958 35.8144C37.3292 35.4392 35.1317 35.2718 32.9333 35.3144C24.7458 35.4144 22.1083 37.0019 21.7833 37.4769L21.1583 36.4769C23.2583 34.9769 27.7083 34.1269 32.9833 34.2019C35.7208 34.2519 38.0833 34.4394 40.0583 34.8269L39.4958 35.8269" fill="#FFFF00"/>
<path d="M39.4958 35.8144C37.3292 35.4392 35.1317 35.2718 32.9333 35.3144C24.7458 35.4144 22.1083 37.0019 21.7833 37.4769L21.1583 36.4769C23.2583 34.9769 27.7083 34.1269 32.9833 34.2019C35.7208 34.2519 38.0833 34.4394 40.0583 34.8269L39.4958 35.8269M32.9458 22.4019C35.5107 22.3586 38.0745 22.5384 40.6083 22.9394C42.6083 23.3144 44.5208 23.8644 44.7958 24.1644L45.0083 24.5394C44.3458 24.1144 42.6833 23.6269 40.5583 23.2269C38.4333 22.8269 35.7208 22.6894 32.9333 22.7019C29.7708 22.6894 27.3083 22.8519 25.2083 23.2269C23.7607 23.4298 22.3552 23.8645 21.0458 24.5144L21.2583 24.1269C22.0083 23.7519 23.1708 23.2894 25.1458 22.9269C27.3333 22.5269 29.8208 22.4144 32.9458 22.4019ZM32.9458 21.2769C35.6208 21.2519 38.2708 21.4019 40.3333 21.7769C41.6696 21.9753 42.9627 22.3979 44.1583 23.0269L44.4708 23.5269C43.9458 22.9394 41.9708 22.3769 40.2083 22.0769C38.1583 21.7144 35.6208 21.5769 32.9458 21.5519C30.4557 21.5297 27.968 21.7136 25.5083 22.1019C24.2221 22.2811 22.973 22.6651 21.8083 23.2394L22.0833 22.8269C22.8083 22.4519 23.9833 22.1019 25.4583 21.8144C27.9343 21.421 30.4389 21.2371 32.9458 21.2644V21.2769Z" stroke="black" stroke-width="0.075" stroke-linecap="round" stroke-linejoin="round"/>
<path fill-rule="evenodd" clip-rule="evenodd" d="M32.8958 35.1769C35.1708 35.2144 37.3958 35.3019 39.5583 35.7019L39.4083 35.9769C37.4083 35.6019 35.2583 35.4769 32.9083 35.4769C29.8708 35.4519 26.8208 35.7394 24.1583 36.5019C23.3208 36.7394 21.9333 37.2769 21.7833 37.7269L21.6333 37.4769C21.6833 37.2019 22.5083 36.6519 24.0833 36.2269C27.1333 35.3519 29.9833 35.1894 32.8958 35.1769ZM32.9958 34.0269C35.397 34.0244 37.7938 34.2336 40.1583 34.6519L39.9958 34.9394C37.6869 34.5158 35.3432 34.3107 32.9958 34.3269C29.9708 34.3269 26.7583 34.5519 23.8333 35.4019C22.8958 35.6769 21.2583 36.2769 21.2083 36.7394L21.0583 36.4644C21.0833 36.0394 22.4958 35.4769 23.7708 35.1144C26.7083 34.2519 29.9333 34.0394 32.9958 34.0269Z" fill="#FFFF00" stroke="black" stroke-width="0.075" stroke-linecap="round" stroke-linejoin="round"/>
<path fill-rule="evenodd" clip-rule="evenodd" d="M44.6208 36.6269L43.6458 38.1644L40.8083 35.6519L33.4833 30.7144L25.2083 26.1769L20.9208 24.7144L21.8333 23.0144L22.1458 22.8519L24.8083 23.5144L33.6083 28.0519L38.6833 31.2519L42.9458 34.3144L44.6833 36.3144L44.6208 36.6269Z" fill="#FFFF00" stroke="black" stroke-width="0.075" stroke-linecap="round" stroke-linejoin="round"/>
<path fill-rule="evenodd" clip-rule="evenodd" d="M20.7708 24.7519C21.5208 24.2519 27.0458 26.7019 32.8458 30.2019C38.6083 33.7019 44.1333 37.6519 43.6333 38.3894L43.4708 38.6519L43.3958 38.7144C43.4083 38.7019 43.4958 38.5894 43.3958 38.3269C43.1458 37.5144 39.2208 34.3894 32.7333 30.4644C26.3958 26.7019 21.1208 24.4269 20.6083 25.0769L20.7708 24.7519ZM44.8208 36.6144C45.2958 35.6644 40.1708 31.8019 33.8083 28.0394C27.3083 24.3519 22.6083 22.1769 21.7458 22.8269L21.5708 23.1894C21.5708 23.2019 21.5708 23.1644 21.6208 23.1269C21.7708 23.0019 22.0333 23.0019 22.1458 23.0019C23.6208 23.0269 27.8333 24.9644 33.7458 28.3519C36.3458 29.8519 44.6958 35.2269 44.6583 36.7269C44.6583 36.8519 44.6708 36.8769 44.6208 36.9519L44.8333 36.6269L44.8208 36.6144Z" fill="#FFFF00" stroke="black" stroke-width="0.075" stroke-linecap="round" stroke-linejoin="round"/>
<path d="M25.0259 31.7853C25.0278 32.8203 25.2351 33.8446 25.6356 34.799C26.0361 35.7534 26.622 36.6189 27.3592 37.3453C28.0875 38.0848 28.9549 38.6728 29.9114 39.0756C30.8679 39.4783 31.8947 39.6878 32.9326 39.692C35.033 39.6918 37.0474 38.8573 38.5326 37.372C39.2672 36.6415 39.8504 35.7731 40.2485 34.8167C40.6466 33.8603 40.8519 32.8346 40.8526 31.7986V21.2386L25.0259 21.2119V31.7853Z" fill="white" stroke="black" stroke-width="0.0933336"/>
<path d="M25.3192 31.7986C25.322 32.7915 25.5214 33.7739 25.9059 34.6893C26.2903 35.6047 26.8523 36.4349 27.5592 37.132C28.9788 38.559 30.9064 39.3645 32.9192 39.372C34.9285 39.3731 36.8562 38.5771 38.2792 37.1586C38.9838 36.4604 39.5433 35.6297 39.9254 34.7144C40.3076 33.7991 40.5049 32.8172 40.5059 31.8253V21.5586H25.3459V31.7986M37.4792 24.6386V31.1586L37.4659 31.8386C37.4704 32.4343 37.3546 33.0247 37.1255 33.5746C36.8964 34.1244 36.5587 34.6224 36.1326 35.0386C35.2847 35.8895 34.1338 36.369 32.9326 36.372C31.6792 36.372 30.5726 35.8386 29.7459 35.012C28.895 34.1641 28.4155 33.0131 28.4125 31.812V24.6119L37.4792 24.6386Z" fill="#FF0000"/>
<path d="M25.3192 31.7986C25.322 32.7915 25.5214 33.7739 25.9059 34.6893C26.2903 35.6047 26.8523 36.4349 27.5592 37.132C28.9788 38.559 30.9064 39.3645 32.9192 39.372C34.9285 39.3731 36.8562 38.5771 38.2792 37.1586C38.9838 36.4604 39.5433 35.6297 39.9254 34.7144C40.3076 33.7991 40.5049 32.8172 40.5059 31.8253V21.5586H25.3459V31.7986M37.4792 24.6386V31.1586L37.4659 31.8386C37.4704 32.4343 37.3546 33.0247 37.1255 33.5746C36.8964 34.1244 36.5587 34.6224 36.1326 35.0386C35.2847 35.8895 34.1338 36.369 32.9326 36.372C31.6792 36.372 30.5726 35.8386 29.7459 35.012C28.895 34.1641 28.4155 33.0131 28.4125 31.812V24.6119L37.4792 24.6386Z" stroke="black" stroke-width="0.0666669"/>
<path d="M26.3059 24.2386C26.3192 23.5053 26.8392 23.3319 26.8392 23.3319C26.8525 23.3319 27.4125 23.5186 27.4125 24.2519H26.3059" fill="#FFFF00"/>
<path d="M25.8525 23.3453L25.7592 24.1853H26.3192C26.3192 23.4919 26.8525 23.3853 26.8525 23.3853C26.8659 23.3853 27.3859 23.5319 27.3992 24.1853H27.9592L27.8525 23.3319H25.8525V23.3453ZM25.7192 24.1986H27.9859C28.0259 24.1986 28.0659 24.2386 28.0659 24.2919C28.0659 24.3586 28.0259 24.3986 27.9859 24.3986H25.7192C25.6792 24.3986 25.6392 24.3586 25.6392 24.2919C25.6392 24.2386 25.6792 24.1986 25.7325 24.1986H25.7192Z" fill="#FFFF00" stroke="black" stroke-width="0.0666669"/>
<path d="M26.5459 24.1853C26.5459 23.7453 26.8525 23.6253 26.8525 23.6253C26.8525 23.6253 27.1592 23.7586 27.1592 24.1853H26.5459ZM25.7725 22.9853H27.9459C27.9859 22.9853 28.0259 23.0386 28.0259 23.0919C28.0259 23.1319 27.9859 23.1719 27.9459 23.1719H25.7725C25.7325 23.1719 25.6925 23.1319 25.6925 23.0786C25.6925 23.0386 25.7325 22.9986 25.7725 22.9986V22.9853ZM25.8259 23.1853H27.8792C27.9192 23.1853 27.9592 23.2253 27.9592 23.2786C27.9592 23.3319 27.9192 23.3719 27.8792 23.3719H25.8125C25.7592 23.3719 25.7325 23.3319 25.7325 23.2786C25.7325 23.2253 25.7592 23.1853 25.8125 23.1853H25.8259ZM26.4925 21.7719H26.6525V21.8786H26.7725V21.7719H26.9459V21.8919H27.0659V21.7586H27.2259V22.0253C27.2259 22.0786 27.1992 22.1053 27.1592 22.1053H26.5725C26.5325 22.1053 26.4925 22.0786 26.4925 22.0386V21.7719ZM27.1059 22.1319L27.1459 22.9853H26.5725L26.6125 22.1186H27.1059" fill="#FFFF00"/>
<path d="M27.1059 22.1319L27.1459 22.9853H26.5725L26.6125 22.1186H27.1059M26.5459 24.1853C26.5459 23.7453 26.8525 23.6253 26.8525 23.6253C26.8525 23.6253 27.1592 23.7586 27.1592 24.1853H26.5459ZM25.7725 22.9853H27.9459C27.9859 22.9853 28.0259 23.0386 28.0259 23.0919C28.0259 23.1319 27.9859 23.1719 27.9459 23.1719H25.7725C25.7325 23.1719 25.6925 23.1319 25.6925 23.0786C25.6925 23.0386 25.7325 22.9986 25.7725 22.9986V22.9853ZM25.8259 23.1853H27.8792C27.9192 23.1853 27.9592 23.2253 27.9592 23.2786C27.9592 23.3319 27.9192 23.3719 27.8792 23.3719H25.8125C25.7592 23.3719 25.7325 23.3319 25.7325 23.2786C25.7325 23.2253 25.7592 23.1853 25.8125 23.1853H25.8259ZM26.4925 21.7719H26.6525V21.8786H26.7725V21.7719H26.9459V21.8919H27.0659V21.7586H27.2259V22.0253C27.2259 22.0786 27.1992 22.1053 27.1592 22.1053H26.5725C26.5325 22.1053 26.4925 22.0786 26.4925 22.0386V21.7719Z" stroke="black" stroke-width="0.0666669"/>
<path d="M26.4125 22.5319V22.9853H25.8792V22.5319H26.4125Z" fill="#FFFF00" stroke="black" stroke-width="0.0666669"/>
<path d="M27.8259 22.5319V22.9853H27.2925V22.5319H27.8259Z" fill="#FFFF00" stroke="black" stroke-width="0.0666669"/>
<path d="M25.7859 22.1853H25.9459V22.3186H26.0659V22.1853H26.2259V22.3186H26.3459V22.1853H26.5059V22.4519C26.5059 22.5053 26.4792 22.5319 26.4392 22.5319H25.8659C25.8447 22.5319 25.8243 22.5235 25.8093 22.5085C25.7943 22.4935 25.7859 22.4731 25.7859 22.4519V22.1853Z" fill="#FFFF00" stroke="black" stroke-width="0.0666669"/>
<path d="M27.1992 22.1853H27.3592V22.3186H27.4792V22.1853H27.6392V22.3186H27.7592V22.1853H27.9192V22.4519C27.9192 22.5053 27.8925 22.5319 27.8525 22.5319H27.2792C27.258 22.5319 27.2376 22.5235 27.2226 22.5085C27.2076 22.4935 27.1992 22.4731 27.1992 22.4519V22.1853Z" fill="#FFFF00" stroke="black" stroke-width="0.0666669"/>
<path d="M26.7992 22.3986C26.7992 22.3186 26.9192 22.3186 26.9192 22.3986V22.6119H26.7992V22.3986Z" fill="black"/>
<path d="M26.0925 22.6919C26.0925 22.6119 26.1992 22.6119 26.1992 22.6919V22.8519H26.0925V22.6919Z" fill="black"/>
<path d="M27.5059 22.6919C27.5059 22.6119 27.6125 22.6119 27.6125 22.6919V22.8519H27.5059V22.6919Z" fill="black"/>
<path d="M26.3059 30.4119C26.3192 29.6786 26.8392 29.5053 26.8392 29.5053C26.8525 29.5053 27.4125 29.6919 27.4125 30.4253H26.3059" fill="#FFFF00"/>
<path d="M25.8525 29.5186L25.7592 30.3586H26.3192C26.3192 29.6653 26.8525 29.5586 26.8525 29.5586C26.8659 29.5586 27.3859 29.7053 27.3992 30.3586H27.9592L27.8525 29.5053H25.8525V29.5186ZM25.7192 30.3719H27.9859C28.0259 30.3719 28.0659 30.4119 28.0659 30.4653C28.0659 30.5319 28.0259 30.5719 27.9859 30.5719H25.7192C25.6792 30.5719 25.6392 30.5319 25.6392 30.4653C25.6392 30.4119 25.6792 30.3719 25.7325 30.3719H25.7192Z" fill="#FFFF00" stroke="black" stroke-width="0.0666669"/>
<path d="M26.5459 30.3586C26.5459 29.9186 26.8525 29.7986 26.8525 29.7986C26.8525 29.7986 27.1592 29.9319 27.1592 30.3586H26.5459ZM25.7725 29.1586H27.9459C27.9859 29.1586 28.0259 29.2119 28.0259 29.2653C28.0259 29.3053 27.9859 29.3453 27.9459 29.3453H25.7725C25.7325 29.3453 25.6925 29.3053 25.6925 29.2519C25.6925 29.2119 25.7325 29.1719 25.7725 29.1719V29.1586ZM25.8259 29.3586H27.8792C27.9192 29.3586 27.9592 29.3986 27.9592 29.4519C27.9592 29.5053 27.9192 29.5453 27.8792 29.5453H25.8125C25.7592 29.5453 25.7325 29.5053 25.7325 29.4519C25.7325 29.3986 25.7592 29.3586 25.8125 29.3586H25.8259ZM26.4925 27.9453H26.6525V28.0519H26.7725V27.9453H26.9459V28.0653H27.0659V27.9319H27.2259V28.1986C27.2259 28.2519 27.1992 28.2786 27.1592 28.2786H26.5725C26.5325 28.2786 26.4925 28.2519 26.4925 28.2119V27.9453ZM27.1059 28.3053L27.1459 29.1586H26.5725L26.6125 28.2919H27.1059" fill="#FFFF00"/>
<path d="M27.1059 28.3053L27.1459 29.1586H26.5725L26.6125 28.2919H27.1059M26.5459 30.3586C26.5459 29.9186 26.8525 29.7986 26.8525 29.7986C26.8525 29.7986 27.1592 29.9319 27.1592 30.3586H26.5459ZM25.7725 29.1586H27.9459C27.9859 29.1586 28.0259 29.2119 28.0259 29.2653C28.0259 29.3053 27.9859 29.3453 27.9459 29.3453H25.7725C25.7325 29.3453 25.6925 29.3053 25.6925 29.2519C25.6925 29.2119 25.7325 29.1719 25.7725 29.1719V29.1586ZM25.8259 29.3586H27.8792C27.9192 29.3586 27.9592 29.3986 27.9592 29.4519C27.9592 29.5053 27.9192 29.5453 27.8792 29.5453H25.8125C25.7592 29.5453 25.7325 29.5053 25.7325 29.4519C25.7325 29.3986 25.7592 29.3586 25.8125 29.3586H25.8259ZM26.4925 27.9453H26.6525V28.0519H26.7725V27.9453H26.9459V28.0653H27.0659V27.9319H27.2259V28.1986C27.2259 28.2519 27.1992 28.2786 27.1592 28.2786H26.5725C26.5325 28.2786 26.4925 28.2519 26.4925 28.2119V27.9453Z" stroke="black" stroke-width="0.0666669"/>
<path d="M26.4125 28.7053V29.1586H25.8792V28.7053H26.4125Z" fill="#FFFF00" stroke="black" stroke-width="0.0666669"/>
<path d="M27.8259 28.7053V29.1586H27.2925V28.7053H27.8259Z" fill="#FFFF00" stroke="black" stroke-width="0.0666669"/>
<path d="M25.7859 28.3586H25.9459V28.4919H26.0659V28.3586H26.2259V28.4919H26.3459V28.3586H26.5059V28.6253C26.5059 28.6786 26.4792 28.7053 26.4392 28.7053H25.8659C25.8447 28.7053 25.8243 28.6968 25.8093 28.6818C25.7943 28.6668 25.7859 28.6465 25.7859 28.6253V28.3586Z" fill="#FFFF00" stroke="black" stroke-width="0.0666669"/>
<path d="M27.1992 28.3586H27.3592V28.4919H27.4792V28.3586H27.6392V28.4919H27.7592V28.3586H27.9192V28.6253C27.9192 28.6786 27.8925 28.7053 27.8525 28.7053H27.2792C27.258 28.7053 27.2376 28.6968 27.2226 28.6818C27.2076 28.6668 27.1992 28.6465 27.1992 28.6253V28.3586Z" fill="#FFFF00" stroke="black" stroke-width="0.0666669"/>
<path d="M26.7992 28.5719C26.7992 28.4919 26.9192 28.4919 26.9192 28.5719V28.7853H26.7992V28.5719Z" fill="black"/>
<path d="M26.0925 28.8653C26.0925 28.7853 26.1992 28.7853 26.1992 28.8653V29.0253H26.0925V28.8653Z" fill="black"/>
<path d="M27.5059 28.8653C27.5059 28.7853 27.6125 28.7853 27.6125 28.8653V29.0253H27.5059V28.8653Z" fill="black"/>
<path d="M28.7121 36.8459C28.2012 36.3197 28.4446 35.8286 28.4446 35.8286C28.454 35.8192 28.981 35.5533 29.5014 36.0701L28.7216 36.8553" fill="#FFFF00"/>
<path d="M27.7588 36.5381L28.2891 37.1962L28.6837 36.7989C28.1917 36.3103 28.4918 35.8567 28.4918 35.8567C28.5012 35.8473 28.9717 35.5816 29.4447 36.0325L29.8393 35.6352L29.1586 35.1096L27.7493 36.5287L27.7588 36.5381ZM28.2704 37.234L29.8675 35.6257C29.8957 35.5973 29.9523 35.5971 29.9901 35.6347C30.0374 35.6816 30.0376 35.7382 30.0094 35.7666L28.4123 37.375C28.3841 37.4033 28.3275 37.4035 28.2802 37.3566C28.2424 37.319 28.2422 37.2624 28.2798 37.2246L28.2704 37.234Z" fill="#FFFF00" stroke="black" stroke-width="0.0666669"/>
<path d="M28.8434 36.638C28.5312 36.328 28.6621 36.0259 28.6621 36.0259C28.6621 36.0259 28.9728 35.9022 29.2756 36.2028L28.8434 36.638ZM27.447 36.3412L28.9784 34.7991C29.0066 34.7707 29.0726 34.7799 29.1105 34.8175C29.1388 34.8457 29.139 34.9022 29.1109 34.9306L27.5794 36.4728C27.5513 36.5011 27.4947 36.5013 27.4568 36.4638C27.4285 36.4356 27.4283 36.379 27.4565 36.3506L27.447 36.3412ZM27.6265 36.4443L29.0733 34.9873C29.1015 34.9589 29.1581 34.9587 29.1959 34.9963C29.2338 35.0339 29.234 35.0905 29.2058 35.1188L27.7495 36.5853C27.712 36.6231 27.6648 36.6139 27.6269 36.5763C27.5891 36.5387 27.5795 36.4916 27.6171 36.4538L27.6265 36.4443ZM27.0934 34.9754L27.2061 34.8618L27.2818 34.937L27.3664 34.8519L27.2907 34.7767L27.4128 34.6537L27.498 34.7383L27.5825 34.6531L27.4879 34.5592L27.6007 34.4456L27.7899 34.6335C27.8277 34.6711 27.8278 34.7088 27.7997 34.7372L27.3863 35.1535C27.3581 35.1819 27.311 35.1915 27.2826 35.1633L27.0934 34.9754ZM27.781 34.7938L28.4147 35.3667L28.0107 35.7736L27.4239 35.1345L27.7715 34.7844" fill="#FFFF00"/>
<path d="M27.781 34.7938L28.4147 35.3667L28.0107 35.7736L27.4239 35.1345L27.7715 34.7844M28.8434 36.638C28.5312 36.328 28.6621 36.0259 28.6621 36.0259C28.6621 36.0259 28.9728 35.9022 29.2756 36.2028L28.8434 36.638ZM27.447 36.3412L28.9784 34.7991C29.0066 34.7707 29.0726 34.7799 29.1105 34.8175C29.1388 34.8457 29.139 34.9022 29.1109 34.9306L27.5794 36.4728C27.5513 36.5011 27.4947 36.5013 27.4568 36.4638C27.4285 36.4356 27.4283 36.379 27.4565 36.3506L27.447 36.3412ZM27.6265 36.4443L29.0733 34.9873C29.1015 34.9589 29.1581 34.9587 29.1959 34.9963C29.2338 35.0339 29.234 35.0905 29.2058 35.1188L27.7495 36.5853C27.712 36.6231 27.6648 36.6139 27.6269 36.5763C27.5891 36.5387 27.5795 36.4916 27.6171 36.4538L27.6265 36.4443ZM27.0934 34.9754L27.2061 34.8618L27.2818 34.937L27.3664 34.8519L27.2907 34.7767L27.4128 34.6537L27.498 34.7383L27.5825 34.6531L27.4879 34.5592L27.6007 34.4456L27.7899 34.6335C27.8277 34.6711 27.8278 34.7088 27.7997 34.7372L27.3863 35.1535C27.3581 35.1819 27.311 35.1915 27.2826 35.1633L27.0934 34.9754Z" stroke="black" stroke-width="0.0666669"/>
<path d="M27.5763 35.5677L27.898 35.8871L27.5222 36.2655L27.2005 35.9461L27.5763 35.5677Z" fill="#FFFF00" stroke="black" stroke-width="0.0666669"/>
<path d="M28.5722 34.5648L28.8938 34.8842L28.518 35.2627L28.1964 34.9432L28.5722 34.5648Z" fill="#FFFF00" stroke="black" stroke-width="0.0666669"/>
<path d="M26.8887 35.7681L27.0015 35.6545L27.0961 35.7485L27.1806 35.6633L27.086 35.5694L27.1988 35.4558L27.2934 35.5498L27.3779 35.4646L27.2833 35.3707L27.3961 35.2572L27.5853 35.4451C27.6231 35.4826 27.6233 35.5204 27.5951 35.5487L27.1911 35.9556C27.1761 35.9706 27.1558 35.9791 27.1346 35.9792C27.1134 35.9793 27.093 35.9709 27.0779 35.956L26.8887 35.7681Z" fill="#FFFF00" stroke="black" stroke-width="0.0666669"/>
<path d="M27.8846 34.7652L27.9974 34.6517L28.092 34.7456L28.1765 34.6605L28.0819 34.5665L28.1947 34.453L28.2893 34.5469L28.3738 34.4618L28.2792 34.3678L28.392 34.2543L28.5812 34.4422C28.619 34.4798 28.6191 34.5175 28.591 34.5459L28.187 34.9527C28.172 34.9678 28.1517 34.9763 28.1305 34.9763C28.1093 34.9764 28.0889 34.968 28.0738 34.9531L27.8846 34.7652Z" fill="#FFFF00" stroke="black" stroke-width="0.0666669"/>
<path d="M27.7541 35.1993C27.6974 35.143 27.7819 35.0578 27.8387 35.1142L27.9901 35.2645L27.9055 35.3497L27.7541 35.1993Z" fill="black"/>
<path d="M27.4643 35.9075C27.4076 35.8511 27.4827 35.7754 27.5395 35.8318L27.653 35.9445L27.5779 36.0202L27.4643 35.9075Z" fill="black"/>
<path d="M28.4602 34.9046C28.4034 34.8482 28.4786 34.7725 28.5354 34.8289L28.6489 34.9417L28.5737 35.0173L28.4602 34.9046Z" fill="black"/>
<path d="M32.3992 24.2386C32.4126 23.5053 32.9326 23.3319 32.9326 23.3319C32.9459 23.3319 33.5059 23.5186 33.5059 24.2519H32.3992" fill="#FFFF00"/>
<path d="M31.9459 23.3453L31.8526 24.1853H32.4126C32.4126 23.4919 32.9459 23.3853 32.9459 23.3853C32.9592 23.3853 33.4792 23.5319 33.4926 24.1853H34.0526L33.9459 23.3319H31.9459V23.3453ZM31.8126 24.1986H34.0792C34.1192 24.1986 34.1592 24.2386 34.1592 24.2919C34.1592 24.3586 34.1192 24.3986 34.0792 24.3986H31.8126C31.7726 24.3986 31.7326 24.3586 31.7326 24.2919C31.7326 24.2386 31.7726 24.1986 31.8259 24.1986H31.8126Z" fill="#FFFF00" stroke="black" stroke-width="0.0666669"/>
<path d="M32.6392 24.1853C32.6392 23.7453 32.9459 23.6253 32.9459 23.6253C32.9459 23.6253 33.2526 23.7586 33.2526 24.1853H32.6392ZM31.8659 22.9853H34.0392C34.0792 22.9853 34.1192 23.0386 34.1192 23.0919C34.1192 23.1319 34.0792 23.1719 34.0392 23.1719H31.8659C31.8259 23.1719 31.7859 23.1319 31.7859 23.0786C31.7859 23.0386 31.8259 22.9986 31.8659 22.9986V22.9853ZM31.9192 23.1853H33.9726C34.0126 23.1853 34.0526 23.2253 34.0526 23.2786C34.0526 23.3319 34.0126 23.3719 33.9726 23.3719H31.9059C31.8526 23.3719 31.8259 23.3319 31.8259 23.2786C31.8259 23.2253 31.8526 23.1853 31.9059 23.1853H31.9192ZM32.5859 21.7719H32.7459V21.8786H32.8659V21.7719H33.0392V21.8919H33.1592V21.7586H33.3192V22.0253C33.3192 22.0786 33.2926 22.1053 33.2526 22.1053H32.6659C32.6259 22.1053 32.5859 22.0786 32.5859 22.0386V21.7719ZM33.1992 22.1319L33.2392 22.9853H32.6659L32.7059 22.1186H33.1992" fill="#FFFF00"/>
<path d="M33.1992 22.1319L33.2392 22.9853H32.6659L32.7059 22.1186H33.1992M32.6392 24.1853C32.6392 23.7453 32.9459 23.6253 32.9459 23.6253C32.9459 23.6253 33.2526 23.7586 33.2526 24.1853H32.6392ZM31.8659 22.9853H34.0392C34.0792 22.9853 34.1192 23.0386 34.1192 23.0919C34.1192 23.1319 34.0792 23.1719 34.0392 23.1719H31.8659C31.8259 23.1719 31.7859 23.1319 31.7859 23.0786C31.7859 23.0386 31.8259 22.9986 31.8659 22.9986V22.9853ZM31.9192 23.1853H33.9726C34.0126 23.1853 34.0526 23.2253 34.0526 23.2786C34.0526 23.3319 34.0126 23.3719 33.9726 23.3719H31.9059C31.8526 23.3719 31.8259 23.3319 31.8259 23.2786C31.8259 23.2253 31.8526 23.1853 31.9059 23.1853H31.9192ZM32.5859 21.7719H32.7459V21.8786H32.8659V21.7719H33.0392V21.8919H33.1592V21.7586H33.3192V22.0253C33.3192 22.0786 33.2926 22.1053 33.2526 22.1053H32.6659C32.6259 22.1053 32.5859 22.0786 32.5859 22.0386V21.7719Z" stroke="black" stroke-width="0.0666669"/>
<path d="M32.5059 22.5319V22.9853H31.9726V22.5319H32.5059Z" fill="#FFFF00" stroke="black" stroke-width="0.0666669"/>
<path d="M33.9192 22.5319V22.9853H33.3859V22.5319H33.9192Z" fill="#FFFF00" stroke="black" stroke-width="0.0666669"/>
<path d="M31.8792 22.1853H32.0392V22.3186H32.1592V22.1853H32.3192V22.3186H32.4392V22.1853H32.5992V22.4519C32.5992 22.5053 32.5726 22.5319 32.5326 22.5319H31.9592C31.938 22.5319 31.9177 22.5235 31.9027 22.5085C31.8877 22.4935 31.8792 22.4731 31.8792 22.4519V22.1853Z" fill="#FFFF00" stroke="black" stroke-width="0.0666669"/>
<path d="M33.2926 22.1853H33.4526V22.3186H33.5726V22.1853H33.7326V22.3186H33.8526V22.1853H34.0126V22.4519C34.0126 22.5053 33.9859 22.5319 33.9459 22.5319H33.3726C33.3514 22.5319 33.331 22.5235 33.316 22.5085C33.301 22.4935 33.2926 22.4731 33.2926 22.4519V22.1853Z" fill="#FFFF00" stroke="black" stroke-width="0.0666669"/>
<path d="M32.8926 22.3986C32.8926 22.3186 33.0126 22.3186 33.0126 22.3986V22.6119H32.8926V22.3986Z" fill="black"/>
<path d="M32.1859 22.6919C32.1859 22.6119 32.2926 22.6119 32.2926 22.6919V22.8519H32.1859V22.6919Z" fill="black"/>
<path d="M33.5992 22.6919C33.5992 22.6119 33.7059 22.6119 33.7059 22.6919V22.8519H33.5992V22.6919Z" fill="black"/>
<path d="M39.5592 24.2386C39.5459 23.5053 39.0259 23.3319 39.0259 23.3319C39.0126 23.3319 38.4526 23.5186 38.4526 24.2519H39.5592" fill="#FFFF00"/>
<path d="M40.0126 23.3453L40.1059 24.1853H39.5459C39.5459 23.4919 39.0126 23.3853 39.0126 23.3853C38.9992 23.3853 38.4792 23.5319 38.4659 24.1853H37.9059L38.0126 23.3319H40.0126V23.3453ZM40.1459 24.1986H37.8792C37.8392 24.1986 37.7992 24.2386 37.7992 24.2919C37.7992 24.3586 37.8392 24.3986 37.8792 24.3986H40.1459C40.1859 24.3986 40.2259 24.3586 40.2259 24.2919C40.2259 24.2386 40.1859 24.1986 40.1326 24.1986H40.1459Z" fill="#FFFF00" stroke="black" stroke-width="0.0666669"/>
<path d="M39.3192 24.1853C39.3192 23.7453 39.0126 23.6253 39.0126 23.6253C39.0126 23.6253 38.7059 23.7586 38.7059 24.1853H39.3192ZM40.0926 22.9853H37.9192C37.8792 22.9853 37.8392 23.0386 37.8392 23.0919C37.8392 23.1319 37.8792 23.1719 37.9192 23.1719H40.0926C40.1326 23.1719 40.1726 23.1319 40.1726 23.0786C40.1726 23.0386 40.1326 22.9986 40.0926 22.9986V22.9853ZM40.0393 23.1853H37.9859C37.9459 23.1853 37.9059 23.2253 37.9059 23.2786C37.9059 23.3319 37.9459 23.3719 37.9859 23.3719H40.0526C40.1059 23.3719 40.1326 23.3319 40.1326 23.2786C40.1326 23.2253 40.1059 23.1853 40.0526 23.1853H40.0393ZM39.3726 21.7719H39.2126V21.8786H39.0926V21.7719H38.9192V21.8919H38.7992V21.7586H38.6392V22.0253C38.6392 22.0786 38.6659 22.1053 38.7059 22.1053H39.2926C39.3326 22.1053 39.3726 22.0786 39.3726 22.0386V21.7719ZM38.7592 22.1319L38.7192 22.9853H39.2926L39.2526 22.1186H38.7592" fill="#FFFF00"/>
<path d="M38.7592 22.1319L38.7192 22.9853H39.2926L39.2526 22.1186H38.7592M39.3192 24.1853C39.3192 23.7453 39.0126 23.6253 39.0126 23.6253C39.0126 23.6253 38.7059 23.7586 38.7059 24.1853H39.3192ZM40.0926 22.9853H37.9192C37.8792 22.9853 37.8392 23.0386 37.8392 23.0919C37.8392 23.1319 37.8792 23.1719 37.9192 23.1719H40.0926C40.1326 23.1719 40.1726 23.1319 40.1726 23.0786C40.1726 23.0386 40.1326 22.9986 40.0926 22.9986V22.9853ZM40.0393 23.1853H37.9859C37.9459 23.1853 37.9059 23.2253 37.9059 23.2786C37.9059 23.3319 37.9459 23.3719 37.9859 23.3719H40.0526C40.1059 23.3719 40.1326 23.3319 40.1326 23.2786C40.1326 23.2253 40.1059 23.1853 40.0526 23.1853H40.0393ZM39.3726 21.7719H39.2126V21.8786H39.0926V21.7719H38.9192V21.8919H38.7992V21.7586H38.6392V22.0253C38.6392 22.0786 38.6659 22.1053 38.7059 22.1053H39.2926C39.3326 22.1053 39.3726 22.0786 39.3726 22.0386V21.7719Z" stroke="black" stroke-width="0.0666669"/>
<path d="M39.4526 22.5319V22.9853H39.9859V22.5319H39.4526Z" fill="#FFFF00" stroke="black" stroke-width="0.0666669"/>
<path d="M38.0392 22.5319V22.9853H38.5726V22.5319H38.0392Z" fill="#FFFF00" stroke="black" stroke-width="0.0666669"/>
<path d="M40.0793 22.1853H39.9193V22.3186H39.7993V22.1853H39.6393V22.3186H39.5193V22.1853H39.3593V22.4519C39.3593 22.5053 39.3859 22.5319 39.4259 22.5319H39.9993C40.0205 22.5319 40.0408 22.5235 40.0558 22.5085C40.0708 22.4935 40.0793 22.4731 40.0793 22.4519V22.1853Z" fill="#FFFF00" stroke="black" stroke-width="0.0666669"/>
<path d="M38.6659 22.1853H38.5059V22.3186H38.3859V22.1853H38.2259V22.3186H38.1059V22.1853H37.9459V22.4519C37.9459 22.5053 37.9726 22.5319 38.0126 22.5319H38.5859C38.6071 22.5319 38.6275 22.5235 38.6425 22.5085C38.6575 22.4935 38.6659 22.4731 38.6659 22.4519V22.1853Z" fill="#FFFF00" stroke="black" stroke-width="0.0666669"/>
<path d="M39.0659 22.3986C39.0659 22.3186 38.9459 22.3186 38.9459 22.3986V22.6119H39.0659V22.3986Z" fill="black"/>
<path d="M39.7726 22.6919C39.7726 22.6119 39.6659 22.6119 39.6659 22.6919V22.8519H39.7726V22.6919Z" fill="black"/>
<path d="M38.3592 22.6919C38.3592 22.6119 38.2526 22.6119 38.2526 22.6919V22.8519H38.3592V22.6919Z" fill="black"/>
<path d="M39.5592 30.4119C39.5459 29.6786 39.0259 29.5053 39.0259 29.5053C39.0126 29.5053 38.4526 29.6919 38.4526 30.4253H39.5592" fill="#FFFF00"/>
<path d="M40.0126 29.5186L40.1059 30.3586H39.5459C39.5459 29.6653 39.0126 29.5586 39.0126 29.5586C38.9992 29.5586 38.4792 29.7053 38.4659 30.3586H37.9059L38.0126 29.5053H40.0126V29.5186ZM40.1459 30.3719H37.8792C37.8392 30.3719 37.7992 30.4119 37.7992 30.4653C37.7992 30.5319 37.8392 30.5719 37.8792 30.5719H40.1459C40.1859 30.5719 40.2259 30.5319 40.2259 30.4653C40.2259 30.4119 40.1859 30.3719 40.1326 30.3719H40.1459Z" fill="#FFFF00" stroke="black" stroke-width="0.0666669"/>
<path d="M39.3192 30.3586C39.3192 29.9186 39.0126 29.7986 39.0126 29.7986C39.0126 29.7986 38.7059 29.9319 38.7059 30.3586H39.3192ZM40.0926 29.1586H37.9192C37.8792 29.1586 37.8392 29.2119 37.8392 29.2653C37.8392 29.3053 37.8792 29.3453 37.9192 29.3453H40.0926C40.1326 29.3453 40.1726 29.3053 40.1726 29.2519C40.1726 29.2119 40.1326 29.1719 40.0926 29.1719V29.1586ZM40.0393 29.3586H37.9859C37.9459 29.3586 37.9059 29.3986 37.9059 29.4519C37.9059 29.5053 37.9459 29.5453 37.9859 29.5453H40.0526C40.1059 29.5453 40.1326 29.5053 40.1326 29.4519C40.1326 29.3986 40.1059 29.3586 40.0526 29.3586H40.0393ZM39.3726 27.9453H39.2126V28.0519H39.0926V27.9453H38.9192V28.0653H38.7992V27.9319H38.6392V28.1986C38.6392 28.2519 38.6659 28.2786 38.7059 28.2786H39.2926C39.3326 28.2786 39.3726 28.2519 39.3726 28.2119V27.9453ZM38.7592 28.3053L38.7192 29.1586H39.2926L39.2526 28.2919H38.7592" fill="#FFFF00"/>
<path d="M38.7592 28.3053L38.7192 29.1586H39.2926L39.2526 28.2919H38.7592M39.3192 30.3586C39.3192 29.9186 39.0126 29.7986 39.0126 29.7986C39.0126 29.7986 38.7059 29.9319 38.7059 30.3586H39.3192ZM40.0926 29.1586H37.9192C37.8792 29.1586 37.8392 29.2119 37.8392 29.2653C37.8392 29.3053 37.8792 29.3453 37.9192 29.3453H40.0926C40.1326 29.3453 40.1726 29.3053 40.1726 29.2519C40.1726 29.2119 40.1326 29.1719 40.0926 29.1719V29.1586ZM40.0393 29.3586H37.9859C37.9459 29.3586 37.9059 29.3986 37.9059 29.4519C37.9059 29.5053 37.9459 29.5453 37.9859 29.5453H40.0526C40.1059 29.5453 40.1326 29.5053 40.1326 29.4519C40.1326 29.3986 40.1059 29.3586 40.0526 29.3586H40.0393ZM39.3726 27.9453H39.2126V28.0519H39.0926V27.9453H38.9192V28.0653H38.7992V27.9319H38.6392V28.1986C38.6392 28.2519 38.6659 28.2786 38.7059 28.2786H39.2926C39.3326 28.2786 39.3726 28.2519 39.3726 28.2119V27.9453Z" stroke="black" stroke-width="0.0666669"/>
<path d="M39.4526 28.7053V29.1586H39.9859V28.7053H39.4526Z" fill="#FFFF00" stroke="black" stroke-width="0.0666669"/>
<path d="M38.0392 28.7053V29.1586H38.5726V28.7053H38.0392Z" fill="#FFFF00" stroke="black" stroke-width="0.0666669"/>
<path d="M40.0793 28.3586H39.9193V28.4919H39.7993V28.3586H39.6393V28.4919H39.5193V28.3586H39.3593V28.6253C39.3593 28.6786 39.3859 28.7053 39.4259 28.7053H39.9993C40.0205 28.7053 40.0408 28.6968 40.0558 28.6818C40.0708 28.6668 40.0793 28.6465 40.0793 28.6253V28.3586Z" fill="#FFFF00" stroke="black" stroke-width="0.0666669"/>
<path d="M38.6659 28.3586H38.5059V28.4919H38.3859V28.3586H38.2259V28.4919H38.1059V28.3586H37.9459V28.6253C37.9459 28.6786 37.9726 28.7053 38.0126 28.7053H38.5859C38.6071 28.7053 38.6275 28.6968 38.6425 28.6818C38.6575 28.6668 38.6659 28.6465 38.6659 28.6253V28.3586Z" fill="#FFFF00" stroke="black" stroke-width="0.0666669"/>
<path d="M39.0659 28.5719C39.0659 28.4919 38.9459 28.4919 38.9459 28.5719V28.7853H39.0659V28.5719Z" fill="black"/>
<path d="M39.7726 28.8653C39.7726 28.7853 39.6659 28.7853 39.6659 28.8653V29.0253H39.7726V28.8653Z" fill="black"/>
<path d="M38.3592 28.8653C38.3592 28.7853 38.2526 28.7853 38.2526 28.8653V29.0253H38.3592V28.8653Z" fill="black"/>
<path d="M37.153 36.8459C37.664 36.3197 37.4205 35.8286 37.4205 35.8286C37.4111 35.8192 36.8841 35.5533 36.3637 36.0701L37.1435 36.8553" fill="#FFFF00"/>
<path d="M38.1063 36.5381L37.576 37.1962L37.1814 36.7989C37.6734 36.3103 37.3733 35.8567 37.3733 35.8567C37.3639 35.8473 36.8934 35.5816 36.4204 36.0325L36.0258 35.6352L36.7065 35.1096L38.1158 36.5287L38.1063 36.5381ZM37.5948 37.234L35.9976 35.6257C35.9694 35.5973 35.9128 35.5971 35.875 35.6347C35.8277 35.6816 35.8275 35.7382 35.8557 35.7666L37.4528 37.375C37.481 37.4033 37.5376 37.4035 37.5849 37.3566C37.6228 37.319 37.6229 37.2624 37.5854 37.2246L37.5948 37.234Z" fill="#FFFF00" stroke="black" stroke-width="0.0666669"/>
<path d="M37.0217 36.638C37.3339 36.328 37.203 36.0259 37.203 36.0259C37.203 36.0259 36.8923 35.9022 36.5895 36.2028L37.0217 36.638ZM38.4181 36.3412L36.8867 34.7991C36.8585 34.7707 36.7925 34.7799 36.7547 34.8175C36.7263 34.8457 36.7261 34.9022 36.7543 34.9306L38.2857 36.4728C38.3139 36.5011 38.3704 36.5013 38.4083 36.4638C38.4367 36.4356 38.4369 36.379 38.4087 36.3506L38.4181 36.3412ZM38.2386 36.4443L36.7918 34.9873C36.7636 34.9589 36.707 34.9587 36.6692 34.9963C36.6313 35.0339 36.6311 35.0905 36.6593 35.1188L38.1156 36.5853C38.1532 36.6231 38.2003 36.6139 38.2382 36.5763C38.276 36.5387 38.2856 36.4916 38.248 36.4538L38.2386 36.4443ZM38.7717 34.9754L38.659 34.8618L38.5833 34.937L38.4988 34.8519L38.5744 34.7767L38.4523 34.6537L38.3672 34.7383L38.2826 34.6531L38.3772 34.5592L38.2645 34.4456L38.0752 34.6335C38.0374 34.6711 38.0373 34.7088 38.0655 34.7372L38.4788 35.1535C38.507 35.1819 38.5541 35.1915 38.5825 35.1633L38.7717 34.9754ZM38.0841 34.7938L37.4504 35.3667L37.8544 35.7736L38.4412 35.1345L38.0936 34.7844" fill="#FFFF00"/>
<path d="M38.0841 34.7938L37.4504 35.3667L37.8544 35.7736L38.4412 35.1345L38.0936 34.7844M37.0217 36.638C37.3339 36.328 37.203 36.0259 37.203 36.0259C37.203 36.0259 36.8923 35.9022 36.5895 36.2028L37.0217 36.638ZM38.4181 36.3412L36.8867 34.7991C36.8585 34.7707 36.7925 34.7799 36.7547 34.8175C36.7263 34.8457 36.7261 34.9022 36.7543 34.9306L38.2857 36.4728C38.3139 36.5011 38.3704 36.5013 38.4083 36.4638C38.4367 36.4356 38.4369 36.379 38.4087 36.3506L38.4181 36.3412ZM38.2386 36.4443L36.7918 34.9873C36.7636 34.9589 36.707 34.9587 36.6692 34.9963C36.6313 35.0339 36.6311 35.0905 36.6593 35.1188L38.1156 36.5853C38.1532 36.6231 38.2003 36.6139 38.2382 36.5763C38.276 36.5387 38.2856 36.4916 38.248 36.4538L38.2386 36.4443ZM38.7717 34.9754L38.659 34.8618L38.5833 34.937L38.4988 34.8519L38.5744 34.7767L38.4523 34.6537L38.3672 34.7383L38.2826 34.6531L38.3772 34.5592L38.2645 34.4456L38.0752 34.6335C38.0374 34.6711 38.0373 34.7088 38.0655 34.7372L38.4788 35.1535C38.507 35.1819 38.5541 35.1915 38.5825 35.1633L38.7717 34.9754Z" stroke="black" stroke-width="0.0666669"/>
<path d="M38.2888 35.5677L37.9672 35.8871L38.343 36.2655L38.6646 35.9461L38.2888 35.5677Z" fill="#FFFF00" stroke="black" stroke-width="0.0666669"/>
<path d="M37.2929 34.5648L36.9713 34.8842L37.3471 35.2627L37.6688 34.9432L37.2929 34.5648Z" fill="#FFFF00" stroke="black" stroke-width="0.0666669"/>
<path d="M38.9764 35.7681L38.8637 35.6545L38.769 35.7485L38.6845 35.6633L38.7791 35.5694L38.6664 35.4558L38.5717 35.5498L38.4872 35.4646L38.5818 35.3707L38.4691 35.2572L38.2798 35.4451C38.242 35.4826 38.2419 35.5204 38.27 35.5487L38.674 35.9556C38.689 35.9706 38.7093 35.9791 38.7305 35.9792C38.7517 35.9793 38.7721 35.9709 38.7872 35.956L38.9764 35.7681Z" fill="#FFFF00" stroke="black" stroke-width="0.0666669"/>
<path d="M37.9805 34.7652L37.8678 34.6517L37.7732 34.7456L37.6886 34.6605L37.7832 34.5665L37.6705 34.453L37.5759 34.5469L37.4913 34.4618L37.5859 34.3678L37.4732 34.2543L37.284 34.4422C37.2461 34.4798 37.246 34.5175 37.2742 34.5459L37.6782 34.9527C37.6931 34.9678 37.7134 34.9763 37.7346 34.9763C37.7559 34.9764 37.7762 34.968 37.7913 34.9531L37.9805 34.7652Z" fill="#FFFF00" stroke="black" stroke-width="0.0666669"/>
<path d="M38.111 35.1993C38.1678 35.143 38.0832 35.0578 38.0264 35.1142L37.8751 35.2645L37.9596 35.3497L38.111 35.1993Z" fill="black"/>
<path d="M38.4008 35.9075C38.4576 35.8511 38.3824 35.7754 38.3256 35.8318L38.2121 35.9445L38.2873 36.0202L38.4008 35.9075Z" fill="black"/>
<path d="M37.4049 34.9046C37.4617 34.8482 37.3865 34.7725 37.3297 34.8289L37.2162 34.9417L37.2914 35.0173L37.4049 34.9046Z" fill="black"/>
<path d="M31.9592 30.6386C31.9568 30.92 32.0617 31.1918 32.2526 31.3986C32.3416 31.4982 32.4504 31.5781 32.5721 31.6332C32.6938 31.6883 32.8257 31.7174 32.9592 31.7186C33.2392 31.7186 33.4926 31.5853 33.6659 31.3986C33.8567 31.1918 33.9616 30.92 33.9592 30.6386V29.1986H31.9592V30.6386Z" fill="#003399"/>
<path d="M32.4259 29.9453C32.5363 29.9453 32.6259 29.8557 32.6259 29.7453C32.6259 29.6348 32.5363 29.5453 32.4259 29.5453C32.3154 29.5453 32.2259 29.6348 32.2259 29.7453C32.2259 29.8557 32.3154 29.9453 32.4259 29.9453Z" fill="white"/>
<path d="M33.5326 29.9453C33.643 29.9453 33.7326 29.8557 33.7326 29.7453C33.7326 29.6348 33.643 29.5453 33.5326 29.5453C33.4221 29.5453 33.3326 29.6348 33.3326 29.7453C33.3326 29.8557 33.4221 29.9453 33.5326 29.9453Z" fill="white"/>
<path d="M32.9726 30.4786C33.083 30.4786 33.1726 30.3891 33.1726 30.2786C33.1726 30.1682 33.083 30.0786 32.9726 30.0786C32.8621 30.0786 32.7726 30.1682 32.7726 30.2786C32.7726 30.3891 32.8621 30.4786 32.9726 30.4786Z" fill="white"/>
<path d="M32.4259 31.0386C32.5363 31.0386 32.6259 30.9491 32.6259 30.8386C32.6259 30.7282 32.5363 30.6386 32.4259 30.6386C32.3154 30.6386 32.2259 30.7282 32.2259 30.8386C32.2259 30.9491 32.3154 31.0386 32.4259 31.0386Z" fill="white"/>
<path d="M33.5326 31.0386C33.643 31.0386 33.7326 30.9491 33.7326 30.8386C33.7326 30.7282 33.643 30.6386 33.5326 30.6386C33.4221 30.6386 33.3326 30.7282 33.3326 30.8386C33.3326 30.9491 33.4221 31.0386 33.5326 31.0386Z" fill="white"/>
<path d="M31.9592 27.1719C31.9568 27.4534 32.0617 27.7251 32.2526 27.9319C32.3416 28.0315 32.4504 28.1114 32.5721 28.1665C32.6938 28.2216 32.8257 28.2507 32.9592 28.2519C33.2392 28.2519 33.4926 28.1186 33.6659 27.9319C33.8567 27.7251 33.9616 27.4534 33.9592 27.1719V25.7319H31.9592V27.1719Z" fill="#003399"/>
<path d="M32.4259 26.4786C32.5363 26.4786 32.6259 26.3891 32.6259 26.2786C32.6259 26.1681 32.5363 26.0786 32.4259 26.0786C32.3154 26.0786 32.2259 26.1681 32.2259 26.2786C32.2259 26.3891 32.3154 26.4786 32.4259 26.4786Z" fill="white"/>
<path d="M33.5326 26.4786C33.643 26.4786 33.7326 26.3891 33.7326 26.2786C33.7326 26.1681 33.643 26.0786 33.5326 26.0786C33.4221 26.0786 33.3326 26.1681 33.3326 26.2786C33.3326 26.3891 33.4221 26.4786 33.5326 26.4786Z" fill="white"/>
<path d="M32.9726 27.0119C33.083 27.0119 33.1726 26.9224 33.1726 26.8119C33.1726 26.7015 33.083 26.6119 32.9726 26.6119C32.8621 26.6119 32.7726 26.7015 32.7726 26.8119C32.7726 26.9224 32.8621 27.0119 32.9726 27.0119Z" fill="white"/>
<path d="M32.4259 27.5719C32.5363 27.5719 32.6259 27.4824 32.6259 27.3719C32.6259 27.2615 32.5363 27.1719 32.4259 27.1719C32.3154 27.1719 32.2259 27.2615 32.2259 27.3719C32.2259 27.4824 32.3154 27.5719 32.4259 27.5719Z" fill="white"/>
<path d="M33.5326 27.5719C33.643 27.5719 33.7326 27.4824 33.7326 27.3719C33.7326 27.2615 33.643 27.1719 33.5326 27.1719C33.4221 27.1719 33.3326 27.2615 33.3326 27.3719C33.3326 27.4824 33.4221 27.5719 33.5326 27.5719Z" fill="white"/>
<path d="M29.1859 30.6386C29.1835 30.92 29.2884 31.1918 29.4792 31.3986C29.5683 31.4982 29.6771 31.5781 29.7988 31.6332C29.9205 31.6883 30.0523 31.7174 30.1859 31.7186C30.4659 31.7186 30.7192 31.5853 30.8926 31.3986C31.0834 31.1918 31.1883 30.92 31.1859 30.6386V29.1986H29.1859V30.6386Z" fill="#003399"/>
<path d="M29.6526 29.9453C29.763 29.9453 29.8526 29.8557 29.8526 29.7453C29.8526 29.6348 29.763 29.5453 29.6526 29.5453C29.5421 29.5453 29.4526 29.6348 29.4526 29.7453C29.4526 29.8557 29.5421 29.9453 29.6526 29.9453Z" fill="white"/>
<path d="M30.7592 29.9453C30.8697 29.9453 30.9592 29.8557 30.9592 29.7453C30.9592 29.6348 30.8697 29.5453 30.7592 29.5453C30.6488 29.5453 30.5592 29.6348 30.5592 29.7453C30.5592 29.8557 30.6488 29.9453 30.7592 29.9453Z" fill="white"/>
<path d="M30.1992 30.4786C30.3097 30.4786 30.3992 30.3891 30.3992 30.2786C30.3992 30.1682 30.3097 30.0786 30.1992 30.0786C30.0888 30.0786 29.9992 30.1682 29.9992 30.2786C29.9992 30.3891 30.0888 30.4786 30.1992 30.4786Z" fill="white"/>
<path d="M29.6526 31.0386C29.763 31.0386 29.8526 30.9491 29.8526 30.8386C29.8526 30.7282 29.763 30.6386 29.6526 30.6386C29.5421 30.6386 29.4526 30.7282 29.4526 30.8386C29.4526 30.9491 29.5421 31.0386 29.6526 31.0386Z" fill="white"/>
<path d="M30.7592 31.0386C30.8697 31.0386 30.9592 30.9491 30.9592 30.8386C30.9592 30.7282 30.8697 30.6386 30.7592 30.6386C30.6488 30.6386 30.5592 30.7282 30.5592 30.8386C30.5592 30.9491 30.6488 31.0386 30.7592 31.0386Z" fill="white"/>
<path d="M34.7326 30.6386C34.7302 30.92 34.835 31.1918 35.0259 31.3986C35.1149 31.4982 35.2238 31.5781 35.3455 31.6332C35.4672 31.6883 35.599 31.7174 35.7326 31.7186C36.0126 31.7186 36.2659 31.5853 36.4392 31.3986C36.6301 31.1918 36.735 30.92 36.7326 30.6386V29.1986H34.7326V30.6386Z" fill="#003399"/>
<path d="M35.1992 29.9453C35.3097 29.9453 35.3992 29.8557 35.3992 29.7453C35.3992 29.6348 35.3097 29.5453 35.1992 29.5453C35.0888 29.5453 34.9992 29.6348 34.9992 29.7453C34.9992 29.8557 35.0888 29.9453 35.1992 29.9453Z" fill="white"/>
<path d="M36.3059 29.9453C36.4164 29.9453 36.5059 29.8557 36.5059 29.7453C36.5059 29.6348 36.4164 29.5453 36.3059 29.5453C36.1954 29.5453 36.1059 29.6348 36.1059 29.7453C36.1059 29.8557 36.1954 29.9453 36.3059 29.9453Z" fill="white"/>
<path d="M35.7459 30.4786C35.8564 30.4786 35.9459 30.3891 35.9459 30.2786C35.9459 30.1682 35.8564 30.0786 35.7459 30.0786C35.6354 30.0786 35.5459 30.1682 35.5459 30.2786C35.5459 30.3891 35.6354 30.4786 35.7459 30.4786Z" fill="white"/>
<path d="M35.1992 31.0386C35.3097 31.0386 35.3992 30.9491 35.3992 30.8386C35.3992 30.7282 35.3097 30.6386 35.1992 30.6386C35.0888 30.6386 34.9992 30.7282 34.9992 30.8386C34.9992 30.9491 35.0888 31.0386 35.1992 31.0386Z" fill="white"/>
<path d="M36.3059 31.0386C36.4164 31.0386 36.5059 30.9491 36.5059 30.8386C36.5059 30.7282 36.4164 30.6386 36.3059 30.6386C36.1954 30.6386 36.1059 30.7282 36.1059 30.8386C36.1059 30.9491 36.1954 31.0386 36.3059 31.0386Z" fill="white"/>
<path d="M31.9592 34.0786C31.9568 34.36 32.0617 34.6318 32.2526 34.8386C32.3416 34.9382 32.4504 35.0181 32.5721 35.0732C32.6938 35.1283 32.8257 35.1574 32.9592 35.1586C33.2392 35.1586 33.4926 35.0253 33.6659 34.8386C33.8567 34.6318 33.9616 34.36 33.9592 34.0786V32.6386H31.9592V34.0786Z" fill="#003399"/>
<path d="M32.4259 33.3853C32.5363 33.3853 32.6259 33.2957 32.6259 33.1853C32.6259 33.0748 32.5363 32.9853 32.4259 32.9853C32.3154 32.9853 32.2259 33.0748 32.2259 33.1853C32.2259 33.2957 32.3154 33.3853 32.4259 33.3853Z" fill="white"/>
<path d="M33.5326 33.3853C33.643 33.3853 33.7326 33.2957 33.7326 33.1853C33.7326 33.0748 33.643 32.9853 33.5326 32.9853C33.4221 32.9853 33.3326 33.0748 33.3326 33.1853C33.3326 33.2957 33.4221 33.3853 33.5326 33.3853Z" fill="white"/>
<path d="M32.9726 33.9186C33.083 33.9186 33.1726 33.8291 33.1726 33.7186C33.1726 33.6082 33.083 33.5186 32.9726 33.5186C32.8621 33.5186 32.7726 33.6082 32.7726 33.7186C32.7726 33.8291 32.8621 33.9186 32.9726 33.9186Z" fill="white"/>
<path d="M32.4259 34.4786C32.5363 34.4786 32.6259 34.3891 32.6259 34.2786C32.6259 34.1682 32.5363 34.0786 32.4259 34.0786C32.3154 34.0786 32.2259 34.1682 32.2259 34.2786C32.2259 34.3891 32.3154 34.4786 32.4259 34.4786Z" fill="white"/>
<path d="M33.5326 34.4786C33.643 34.4786 33.7326 34.3891 33.7326 34.2786C33.7326 34.1682 33.643 34.0786 33.5326 34.0786C33.4221 34.0786 33.3326 34.1682 33.3326 34.2786C33.3326 34.3891 33.4221 34.4786 33.5326 34.4786Z" fill="white"/>
</g>
<defs>
<clipPath id="clip0_398_3042">
<rect x="0.945797" y="0.314363" width="80" height="60" rx="15" fill="white"/>
</clipPath>
</defs>
</svg>
