<svg width="25" height="25" viewBox="0 0 25 25" fill="none" xmlns="http://www.w3.org/2000/svg">
<mask id="mask0_469_3047" style="mask-type:alpha" maskUnits="userSpaceOnUse" x="0" y="0" width="25" height="25">
<rect x="0.888794" y="0.222198" width="24" height="24" fill="#D9D9D9"/>
</mask>
<g mask="url(#mask0_469_3047)">
<path d="M12.8888 17.2222C14.2721 17.2222 15.4513 16.7347 16.4263 15.7597C17.4013 14.7847 17.8888 13.6055 17.8888 12.2222C17.8888 10.8389 17.4013 9.6597 16.4263 8.6847C15.4513 7.7097 14.2721 7.2222 12.8888 7.2222C11.5055 7.2222 10.3263 7.7097 9.35129 8.6847C8.37629 9.6597 7.88879 10.8389 7.88879 12.2222C7.88879 13.6055 8.37629 14.7847 9.35129 15.7597C10.3263 16.7347 11.5055 17.2222 12.8888 17.2222ZM12.8888 22.2222C11.5055 22.2222 10.2055 21.9597 8.98879 21.4347C7.77213 20.9097 6.71379 20.1972 5.81379 19.2972C4.91379 18.3972 4.20129 17.3389 3.67629 16.1222C3.15129 14.9055 2.88879 13.6055 2.88879 12.2222C2.88879 10.8389 3.15129 9.53887 3.67629 8.3222C4.20129 7.10553 4.91379 6.0472 5.81379 5.1472C6.71379 4.2472 7.77213 3.5347 8.98879 3.0097C10.2055 2.4847 11.5055 2.2222 12.8888 2.2222C14.2721 2.2222 15.5721 2.4847 16.7888 3.0097C18.0055 3.5347 19.0638 4.2472 19.9638 5.1472C20.8638 6.0472 21.5763 7.10553 22.1013 8.3222C22.6263 9.53887 22.8888 10.8389 22.8888 12.2222C22.8888 13.6055 22.6263 14.9055 22.1013 16.1222C21.5763 17.3389 20.8638 18.3972 19.9638 19.2972C19.0638 20.1972 18.0055 20.9097 16.7888 21.4347C15.5721 21.9597 14.2721 22.2222 12.8888 22.2222ZM12.8888 20.2222C15.1221 20.2222 17.0138 19.4472 18.5638 17.8972C20.1138 16.3472 20.8888 14.4555 20.8888 12.2222C20.8888 9.98887 20.1138 8.0972 18.5638 6.5472C17.0138 4.9972 15.1221 4.2222 12.8888 4.2222C10.6555 4.2222 8.76379 4.9972 7.21379 6.5472C5.66379 8.0972 4.88879 9.98887 4.88879 12.2222C4.88879 14.4555 5.66379 16.3472 7.21379 17.8972C8.76379 19.4472 10.6555 20.2222 12.8888 20.2222Z" fill="#1C1B1F"/>
</g>
</svg>
