<svg width="25" height="25" viewBox="0 0 25 25" fill="none" xmlns="http://www.w3.org/2000/svg">
<mask id="mask0_394_3047" style="mask-type:alpha" maskUnits="userSpaceOnUse" x="0" y="0" width="25" height="25">
<rect x="0.84021" y="0.869629" width="24" height="24" fill="#D9D9D9"/>
</mask>
<g mask="url(#mask0_394_3047)">
<path d="M11.8402 10.8696C12.3902 10.8696 12.861 10.6738 13.2527 10.2821C13.6444 9.89046 13.8402 9.41963 13.8402 8.86963C13.8402 8.31963 13.6444 7.8488 13.2527 7.45713C12.861 7.06546 12.3902 6.86963 11.8402 6.86963C11.2902 6.86963 10.8194 7.06546 10.4277 7.45713C10.036 7.8488 9.84021 8.31963 9.84021 8.86963C9.84021 9.41963 10.036 9.89046 10.4277 10.2821C10.8194 10.6738 11.2902 10.8696 11.8402 10.8696ZM11.8402 14.8696C12.5902 14.8696 13.2944 14.7113 13.9527 14.3946C14.611 14.078 15.1819 13.628 15.6652 13.0446C15.0819 12.6613 14.4694 12.3696 13.8277 12.1696C13.186 11.9696 12.5235 11.8696 11.8402 11.8696C11.1569 11.8696 10.4944 11.9696 9.85271 12.1696C9.21104 12.3696 8.59854 12.6613 8.01521 13.0446C8.49854 13.628 9.06938 14.078 9.72771 14.3946C10.386 14.7113 11.0902 14.8696 11.8402 14.8696ZM21.4402 21.8696L16.7402 17.1696C16.0569 17.703 15.3027 18.1196 14.4777 18.4196C13.6527 18.7196 12.7735 18.8696 11.8402 18.8696C9.60688 18.8696 7.71521 18.0946 6.16521 16.5446C4.61521 14.9946 3.84021 13.103 3.84021 10.8696C3.84021 8.6363 4.61521 6.74463 6.16521 5.19463C7.71521 3.64463 9.60688 2.86963 11.8402 2.86963C14.0735 2.86963 15.9652 3.64463 17.5152 5.19463C19.0652 6.74463 19.8402 8.6363 19.8402 10.8696C19.8402 11.803 19.6902 12.6821 19.3902 13.5071C19.0902 14.3321 18.6735 15.0863 18.1402 15.7696L22.8402 20.4696L21.4402 21.8696ZM11.8402 16.8696C13.5069 16.8696 14.9235 16.2863 16.0902 15.1196C17.2569 13.953 17.8402 12.5363 17.8402 10.8696C17.8402 9.20296 17.2569 7.7863 16.0902 6.61963C14.9235 5.45296 13.5069 4.86963 11.8402 4.86963C10.1735 4.86963 8.75688 5.45296 7.59021 6.61963C6.42354 7.7863 5.84021 9.20296 5.84021 10.8696C5.84021 12.5363 6.42354 13.953 7.59021 15.1196C8.75688 16.2863 10.1735 16.8696 11.8402 16.8696Z" fill="#1C1B1F"/>
</g>
</svg>
