<svg width="25" height="25" viewBox="0 0 25 25" fill="none" xmlns="http://www.w3.org/2000/svg">
<mask id="mask0_486_3047" style="mask-type:alpha" maskUnits="userSpaceOnUse" x="0" y="0" width="25" height="25">
<rect x="0.888794" y="0.222198" width="24" height="24" fill="#D9D9D9"/>
</mask>
<g mask="url(#mask0_486_3047)">
<path d="M4.88879 20.2222C4.33879 20.2222 3.86796 20.0264 3.47629 19.6347C3.08463 19.243 2.88879 18.7722 2.88879 18.2222V6.2222C2.88879 5.6722 3.08463 5.20137 3.47629 4.8097C3.86796 4.41803 4.33879 4.2222 4.88879 4.2222H20.8888C21.4388 4.2222 21.9096 4.41803 22.3013 4.8097C22.693 5.20137 22.8888 5.6722 22.8888 6.2222V18.2222C22.8888 18.7722 22.693 19.243 22.3013 19.6347C21.9096 20.0264 21.4388 20.2222 20.8888 20.2222H4.88879ZM12.8888 13.2222L4.88879 8.2222V18.2222H20.8888V8.2222L12.8888 13.2222ZM12.8888 11.2222L20.8888 6.2222H4.88879L12.8888 11.2222ZM4.88879 8.2222V6.2222V18.2222V8.2222Z" fill="#1C1B1F"/>
</g>
</svg>
